# xmcd
#
# Track frame offsets: 
#        150
#        13437
#        30616
#        43226
#        56075
#        70313
#        98601
#        109299
#        125286
#        137661
#        152650
#        164478
#        179867
#        204742
#        215498
#        227409
#        244119
#        255714
#        265147
#        280099
#
# Disc length: 3896 seconds
#
# Revision: 4
# Processed by: cddbd v1.5.2PL0 Copyright (c) Steve Scherf et al.
# Submitted via: ExactAudioCopyFreeDBPlugin 1.0
#
DISCID=2e0f3614
DTITLE=Bobby Womack - Facts Of Life - Lookin' For A Love Again
DYEAR=2012
DGENRE=Soul
TTITLE0=Nobody Wants You When You're Down and Out
TTITLE1=I'm Through Trying to Prove My Love to You
TTITLE2=If You Can't Give Her Love, Give Her Up
TTITLE3=That's Heaven to Me
TTITLE4=Holdin' on to My Baby's Love - Nobody
TTITLE5=Fact of Life - He'll Be There When the Sun Goes Down
TTITLE6=Can't Stop a Man in Love
TTITLE7=The Look of Love
TTITLE8=A Natural Man
TTITLE9=All Along the Watchtower
TTITLE10=Lookin' for a Love
TTITLE11=I Don't Wanna Be Hurt By Ya Love Again
TTITLE12=Doing it My Way
TTITLE13=Let it Hang Out
TTITLE14=Point of No Return
TTITLE15=You're Welcome, Stop on By
TTITLE16=You're Messing Up a Good Thing
TTITLE17=Don't Let Me Down
TTITLE18=Copper Kettle
TTITLE19=There's One Thing That Beats Failing
EXTD=
EXTT0=
EXTT1=
EXTT2=
EXTT3=
EXTT4=
EXTT5=
EXTT6=
EXTT7=
EXTT8=
EXTT9=
EXTT10=
EXTT11=
EXTT12=
EXTT13=
EXTT14=
EXTT15=
EXTT16=
EXTT17=
EXTT18=
EXTT19=
PLAYORDER=
